<?xml version="1.0" standalone="no"?>
<!DOCTYPE svg PUBLIC "-//W3C//DTD SVG 20010904//EN"
 "http://www.w3.org/TR/2001/REC-SVG-20010904/DTD/svg10.dtd">
<svg version="1.0" xmlns="http://www.w3.org/2000/svg"
 width="1024.000000pt" height="1024.000000pt" viewBox="0 0 1024.000000 1024.000000"
 preserveAspectRatio="xMidYMid meet">

<g transform="translate(0.000000,1024.000000) scale(0.100000,-0.100000)"
fill="#000000" stroke="none">
<path d="M4633 7751 c-59 -32 -202 -111 -318 -177 -253 -145 -449 -255 -567
-317 -48 -26 -105 -57 -125 -70 -21 -13 -96 -57 -168 -97 -71 -40 -150 -85
-175 -100 -25 -15 -127 -71 -227 -125 -184 -99 -253 -145 -253 -170 0 -16 113
-61 290 -115 74 -23 223 -71 330 -106 107 -35 198 -64 201 -64 4 0 9 31 13 68
19 189 85 291 287 444 120 90 410 206 649 260 95 21 129 23 365 23 182 0 278
-4 320 -13 340 -77 609 -187 714 -293 50 -51 126 -184 138 -243 l8 -37 85 44
c47 24 144 78 217 120 132 77 210 114 219 105 6 -7 47 -252 78 -478 15 -102
29 -191 31 -198 3 -7 -12 -19 -35 -28 -51 -21 -58 -46 -34 -127 17 -55 19 -94
17 -351 l-2 -289 82 7 c45 3 135 9 200 12 65 4 119 10 121 13 2 3 -2 29 -10
56 -29 110 -123 544 -130 600 -9 78 -17 93 -57 97 l-32 3 -8 95 c-4 52 -18
158 -32 235 -30 174 -58 415 -50 423 3 4 27 18 53 32 26 14 47 30 47 35 0 18
-105 63 -340 146 -267 94 -368 130 -635 229 -107 40 -292 107 -410 150 -118
43 -316 114 -440 159 -310 113 -285 110 -417 42z"/>
<path d="M8100 7764 c0 -8 9 -79 20 -157 11 -78 31 -234 45 -347 36 -305 145
-1114 205 -1526 16 -111 48 -352 70 -535 79 -654 140 -1146 155 -1249 8 -58
38 -287 65 -510 28 -223 57 -448 65 -500 7 -52 21 -160 30 -240 9 -80 27 -233
41 -341 21 -172 29 -279 22 -279 -4 0 -389 -43 -768 -85 -179 -19 -451 -51
-605 -70 -154 -19 -363 -44 -465 -54 -186 -20 -437 -50 -820 -97 -113 -14
-277 -33 -365 -44 -88 -10 -308 -37 -490 -59 -181 -22 -375 -45 -430 -51 -150
-16 -621 -76 -775 -99 -74 -11 -232 -31 -350 -45 -514 -58 -797 -93 -1201
-147 -97 -13 -95 -7 -26 -80 15 -16 27 -36 27 -44 0 -8 5 -15 11 -15 6 0 20
-11 30 -24 11 -14 28 -28 39 -31 11 -4 20 -11 20 -16 0 -11 60 -69 71 -69 4 0
21 -12 38 -26 17 -14 31 -22 32 -17 0 4 5 -3 10 -17 8 -20 12 -22 20 -10 7 12
10 11 15 -7 3 -12 16 -23 28 -25 11 -2 20 -9 19 -16 -2 -6 8 -14 22 -18 14 -3
25 -12 25 -20 0 -17 27 -19 32 -3 6 18 48 0 48 -20 0 -15 7 -18 40 -16 22 1
37 -2 34 -7 -8 -13 15 -37 55 -58 20 -10 39 -18 43 -19 17 -3 44 -13 60 -22
10 -5 25 -9 33 -9 8 0 15 -4 15 -10 0 -5 7 -10 15 -10 8 0 15 -4 15 -10 0 -5
24 -10 54 -10 45 0 56 -3 61 -19 6 -19 43 -31 96 -31 16 0 29 -4 29 -10 0 -5
23 -10 50 -10 38 0 50 -4 50 -15 0 -18 16 -20 24 -2 5 9 7 9 12 0 3 -7 19 -13
35 -13 16 0 29 -4 29 -10 0 -6 47 -10 120 -10 73 0 120 -4 120 -10 0 -5 9 -10
20 -10 11 0 20 -4 20 -10 0 -6 80 -10 220 -10 140 0 220 -4 220 -10 0 -6 127
-10 360 -10 353 0 360 0 360 20 0 18 7 20 60 20 33 0 60 4 60 10 0 6 9 10 20
10 11 0 20 -4 20 -10 0 -5 14 -10 30 -10 17 0 30 4 30 9 0 11 54 21 148 28 39
2 72 9 72 14 0 5 9 9 20 9 11 0 20 5 20 10 0 6 47 10 120 10 73 0 120 4 120
10 0 11 49 8 68 -4 7 -4 12 -1 12 8 0 13 16 16 100 16 l100 0 0 25 0 25 100 0
c60 0 100 4 100 10 0 6 18 10 40 10 33 0 40 3 40 20 0 17 7 20 40 20 22 0 40
5 40 10 0 6 9 10 20 10 11 0 20 7 20 15 0 12 13 15 60 15 57 0 60 1 60 25 0
23 4 25 40 25 22 0 40 -4 40 -10 0 -6 47 -10 120 -10 l120 0 0 25 c0 25 1 25
79 25 115 0 201 11 201 25 0 12 83 25 161 25 26 0 39 4 39 14 0 16 82 26 221
26 92 0 99 1 99 20 0 17 7 20 40 20 29 0 40 4 40 15 0 12 16 15 80 15 72 0 80
2 80 19 0 16 11 20 80 26 58 5 80 11 80 21 0 11 18 14 80 14 64 0 80 -3 80
-15 0 -12 18 -15 100 -15 60 0 100 4 100 10 0 6 9 10 20 10 11 0 20 5 20 10 0
6 14 10 30 10 17 0 30 4 30 9 0 10 44 19 128 28 28 2 52 9 52 14 0 5 27 9 60
9 54 0 60 2 60 21 0 16 5 20 28 17 15 -1 31 -7 35 -13 6 -6 10 -6 14 3 2 6 16
12 29 12 30 0 63 16 85 42 9 10 24 18 33 18 9 0 16 7 16 15 0 9 9 15 24 15 37
0 56 10 56 31 0 12 7 19 20 19 11 0 20 5 20 10 0 6 9 10 20 10 15 0 23 11 32
44 11 43 13 44 59 50 37 5 48 11 52 29 3 12 12 40 21 62 11 30 15 34 16 17 0
-13 -5 -32 -10 -43 -14 -25 -6 -24 20 3 17 18 20 35 20 100 0 63 3 78 15 78
12 0 15 15 15 79 0 44 -4 81 -10 83 -5 2 -10 30 -11 63 -2 82 19 335 31 363 6
13 10 38 10 57 0 19 5 35 10 35 6 0 10 15 10 34 0 26 -5 35 -21 39 -16 4 -20
10 -14 24 15 35 17 63 6 63 -6 0 -11 11 -11 25 0 14 -4 25 -10 25 -5 0 -10 7
-10 15 0 8 -4 15 -10 15 -6 0 -10 40 -10 101 0 73 3 98 12 93 13 -8 3 12 -20
38 -10 12 -13 31 -10 63 4 32 1 50 -8 60 -17 17 -21 325 -4 325 15 0 12 69 -4
85 -9 9 -12 29 -8 64 3 34 1 51 -7 51 -6 0 -11 16 -11 35 0 19 -5 35 -11 35
-8 0 -10 21 -6 68 4 43 3 56 -2 37 l-9 -30 -1 28 c0 15 -5 27 -10 27 -4 0 -11
43 -15 97 -6 82 -10 99 -28 115 -19 16 -20 21 -8 29 13 8 13 10 1 18 -7 5 -11
13 -8 17 11 20 -13 54 -38 54 -14 0 -25 5 -25 10 0 6 7 10 16 10 11 0 14 6 8
23 -3 12 -11 24 -15 25 -12 5 -11 82 1 82 6 0 10 40 10 100 0 93 -1 100 -20
100 -19 0 -20 7 -20 99 0 68 4 101 12 103 9 3 9 26 0 101 -7 52 -12 123 -12
156 0 34 -4 61 -10 61 -5 0 -10 9 -10 19 0 11 -4 21 -10 23 -5 2 -11 36 -12
76 -1 39 -5 72 -9 72 -4 0 -5 24 -3 54 4 40 1 58 -10 69 -9 9 -16 33 -16 56 0
30 -4 41 -15 41 -8 0 -15 7 -15 15 0 8 7 15 15 15 11 0 15 11 15 40 0 33 -3
40 -20 40 -16 0 -20 7 -21 38 -1 20 -1 41 0 45 1 5 -8 16 -20 26 -15 12 -19
20 -11 25 7 4 12 2 12 -3 0 -6 4 -11 9 -11 6 0 9 18 9 40 0 22 -4 40 -9 40 -5
0 -9 9 -9 20 0 11 -4 20 -10 20 -5 0 -10 20 -10 44 0 24 -5 46 -11 48 -6 2
-11 17 -11 33 0 17 -5 33 -12 37 -7 5 -13 63 -17 155 -10 227 -20 323 -34 323
-14 0 -22 63 -32 243 -3 64 -10 117 -15 117 -4 0 -8 9 -8 20 0 11 -4 20 -10
20 -6 0 -10 31 -10 73 0 69 -2 75 -25 85 -17 8 -24 19 -24 34 1 13 -8 44 -20
70 -11 25 -18 53 -15 62 4 9 3 16 -2 15 -22 -5 -41 13 -37 36 3 15 -3 31 -16
44 -12 12 -21 26 -21 31 0 6 -7 10 -15 10 -8 0 -15 6 -15 14 0 8 -12 24 -26
35 -16 12 -24 27 -21 35 4 9 -7 26 -26 42 -18 15 -40 40 -49 55 -10 16 -36 38
-58 49 -22 11 -38 25 -35 30 3 5 -4 11 -15 15 -11 3 -20 15 -20 26 0 10 -4 19
-10 19 -5 0 -10 7 -10 15 0 8 -7 15 -15 15 -20 0 -85 32 -85 42 0 4 -8 8 -18
8 -11 0 -29 9 -42 20 -21 18 -42 24 -78 23 -8 -1 -26 11 -40 26 -44 45 -79 64
-107 57 -17 -4 -31 0 -45 14 -24 24 -30 25 -30 4z"/>
<path d="M8910 7130 c0 -5 5 -10 11 -10 5 0 7 5 4 10 -3 6 -8 10 -11 10 -2 0
-4 -4 -4 -10z"/>
<path d="M4715 7089 c-110 -14 -307 -65 -403 -105 -202 -82 -333 -163 -449
-277 -113 -110 -118 -125 -117 -347 0 -102 6 -193 13 -217 l12 -42 102 103
c168 170 379 292 628 365 225 65 428 89 620 72 312 -28 562 -114 813 -278 68
-45 101 -62 109 -54 11 11 -14 212 -39 308 -18 70 -57 143 -101 188 -81 84
-281 172 -530 234 -212 54 -472 73 -658 50z"/>
<path d="M5096 6485 c-70 -19 -153 -80 -204 -150 -24 -33 -47 -61 -50 -62 -4
-2 -28 19 -54 45 -58 59 -113 87 -199 102 -121 21 -249 -28 -315 -121 -20 -27
-44 -49 -53 -49 -42 0 -113 -35 -174 -86 -70 -57 -107 -113 -107 -163 0 -26
-7 -34 -47 -55 -134 -68 -183 -138 -183 -260 0 -87 22 -140 76 -184 85 -70
188 -68 272 4 89 76 109 174 55 262 -23 37 -35 47 -56 47 -37 1 -56 21 -35 37
9 7 19 31 23 53 16 97 68 154 156 170 32 6 37 4 42 -17 13 -51 64 -115 110
-137 25 -12 48 -29 51 -37 3 -9 9 -52 12 -97 l6 -82 -55 -27 c-69 -33 -130
-87 -162 -142 -21 -37 -30 -64 -50 -159 -4 -22 -10 -27 -25 -22 -27 9 -327
-13 -350 -25 -25 -13 -26 -51 -2 -79 17 -21 20 -22 152 -13 123 8 164 17 221
49 3 2 11 -13 18 -34 21 -62 83 -146 134 -180 29 -19 76 -38 120 -48 l73 -16
3 -52 c2 -58 17 -189 32 -284 l9 -63 -38 -38 c-42 -42 -52 -73 -52 -156 1
-100 51 -165 144 -186 189 -42 313 193 175 331 -20 20 -50 40 -66 43 l-29 7
-22 147 c-13 81 -25 177 -29 214 -6 65 -5 66 23 81 45 24 129 117 160 177 25
48 29 66 28 135 -1 113 -29 183 -103 255 -41 40 -72 61 -116 76 l-60 21 -11
64 c-20 109 -18 122 17 138 65 29 94 165 51 247 -49 96 -213 94 -246 -3 -17
-49 -26 -50 -26 -5 0 81 90 147 189 140 88 -7 158 -50 224 -139 24 -32 30 -59
62 -280 39 -282 52 -393 65 -574 10 -150 25 -299 40 -400 6 -38 19 -158 30
-265 11 -107 27 -244 35 -304 16 -114 11 -155 -22 -219 -45 -88 -165 -167
-253 -167 -96 0 -152 34 -185 114 -9 21 -22 44 -29 51 -29 29 -105 58 -175 67
-42 5 -92 13 -112 18 -59 16 -146 118 -165 194 l-7 29 39 -31 c44 -35 120 -57
164 -49 57 12 110 55 136 110 29 64 30 117 3 174 -62 129 -199 147 -325 43
-32 -27 -64 -50 -71 -50 -33 0 -131 47 -170 83 -42 38 -73 84 -73 105 0 5 18
1 40 -10 62 -31 157 -35 207 -9 144 73 131 285 -21 360 -69 35 -124 32 -209
-9 -116 -56 -164 -144 -155 -282 11 -153 126 -288 289 -341 12 -4 18 -25 23
-84 16 -199 149 -345 351 -388 77 -16 117 -36 147 -75 92 -121 122 -135 278
-135 92 0 112 3 161 26 64 30 181 135 199 179 7 17 16 30 21 30 5 0 20 -18 35
-39 60 -92 194 -147 339 -139 134 7 237 71 315 194 37 58 47 67 122 103 112
54 181 123 273 275 8 13 45 19 205 31 401 31 511 76 603 244 35 64 41 84 45
151 5 93 -14 246 -35 279 -13 20 -21 22 -51 17 -47 -7 -75 -40 -69 -81 35
-219 33 -254 -26 -342 -39 -58 -110 -98 -194 -108 -181 -20 -449 -42 -454 -36
-4 3 -12 29 -18 56 -10 46 -9 51 12 68 84 66 105 88 148 155 91 139 102 254
37 374 -57 104 -138 145 -271 136 -121 -8 -181 -51 -213 -153 -15 -45 -15 -60
-5 -98 15 -53 60 -111 104 -134 43 -22 142 -22 184 0 39 21 68 68 86 137 15
58 24 55 33 -12 7 -49 -14 -131 -46 -183 -31 -51 -82 -91 -140 -110 -50 -16
-53 -16 -100 4 -54 23 -150 28 -197 10 -34 -13 -80 -55 -99 -91 -8 -15 -14
-54 -14 -86 0 -118 80 -212 178 -212 80 0 125 27 185 110 l18 25 -4 -56 c-3
-47 -11 -66 -52 -125 -26 -39 -64 -81 -83 -94 -19 -14 -80 -36 -136 -50 l-101
-25 -21 -67 c-43 -134 -110 -181 -254 -182 -100 -1 -143 17 -204 84 -69 77
-90 160 -116 465 -6 72 -27 249 -46 395 -19 146 -37 333 -40 420 -3 91 -16
216 -30 304 -14 81 -29 220 -34 308 l-10 160 46 75 c67 107 135 153 226 153
68 0 135 -33 161 -77 l19 -33 -49 22 c-28 13 -70 22 -100 22 -48 1 -56 -2 -93
-39 -93 -91 -74 -225 39 -278 40 -19 47 -28 58 -67 6 -25 12 -70 12 -102 l1
-56 -45 -27 c-50 -29 -97 -86 -127 -155 -30 -67 -22 -205 14 -281 40 -82 117
-154 182 -173 63 -19 58 -5 86 -215 28 -216 27 -230 -15 -261 -53 -38 -87 -93
-93 -149 -12 -128 74 -218 202 -209 78 5 113 23 150 76 24 34 31 55 34 107 6
84 -22 145 -79 178 -22 12 -42 31 -44 42 -8 34 -55 379 -55 400 0 15 12 25 50
38 100 35 168 111 211 231 68 194 -63 391 -283 428 l-65 11 -12 68 c-16 99
-15 114 15 134 29 19 62 85 72 148 7 39 10 42 47 48 41 7 136 -4 193 -22 49
-16 95 -58 81 -75 -6 -7 -11 -29 -13 -48 -1 -19 -13 -50 -26 -68 -41 -53 -49
-71 -49 -108 -1 -50 29 -109 77 -152 48 -43 88 -53 180 -45 142 14 207 81 200
207 -5 81 -26 125 -90 189 -40 40 -65 55 -119 73 -58 18 -73 28 -99 64 -58 82
-187 143 -277 130 -41 -5 -45 -4 -80 35 -83 92 -241 131 -377 94z m212 -281
c29 -20 28 -48 -4 -73 -35 -28 -79 -27 -98 1 -21 30 -20 44 4 68 24 24 67 26
98 4z m-811 -86 c47 -44 17 -108 -50 -108 -32 0 -77 39 -77 67 0 10 7 29 16
41 21 30 79 30 111 0z m1487 -159 c34 -40 34 -80 -1 -119 -37 -40 -86 -48
-130 -21 -28 18 -33 26 -33 60 0 54 38 98 88 104 20 2 40 4 44 5 3 1 18 -12
32 -29z m-2067 -183 c-4 -10 -1 -13 8 -10 21 8 105 -78 105 -108 0 -28 -32
-62 -73 -77 -58 -22 -127 35 -127 105 0 19 13 39 40 66 44 41 56 47 47 24z
m1580 -125 c68 -31 121 -133 110 -212 -7 -56 -62 -136 -109 -160 -86 -44 -181
-34 -240 24 -39 40 -78 121 -78 166 0 86 54 170 123 190 56 16 148 12 194 -8z
m-944 -72 c87 -24 164 -137 155 -229 -13 -134 -161 -243 -272 -200 -14 5 -46
28 -71 51 -95 88 -96 235 -2 327 60 59 112 73 190 51z m1579 -316 c23 -28 28
-51 17 -80 -14 -37 -38 -52 -81 -53 -28 0 -41 6 -58 27 -42 54 -3 123 70 123
23 0 43 -7 52 -17z m-2195 -245 c30 -28 31 -80 2 -107 -28 -26 -69 -33 -96
-15 -50 32 -52 88 -6 124 33 26 71 25 100 -2z m2006 -276 c9 -10 19 -32 23
-48 5 -26 1 -35 -26 -57 -44 -37 -100 -37 -129 -1 -12 15 -21 37 -21 49 0 12
9 34 21 49 17 22 29 26 68 26 34 0 53 -5 64 -18z m-1678 -157 c49 -48 21 -112
-52 -122 -35 -5 -45 -2 -67 20 -28 28 -33 56 -15 88 23 43 98 51 134 14z
m1249 -45 c37 -36 -11 -120 -69 -120 -27 0 -72 33 -80 61 -9 28 19 67 58 78
38 11 65 5 91 -19z m-826 -67 c34 -29 37 -66 10 -98 -30 -34 -70 -36 -104 -5
-32 31 -32 73 2 99 33 26 65 27 92 4z"/>
<path d="M5339 5555 c-14 -8 -32 -28 -39 -44 -35 -85 70 -184 151 -141 23 13
49 61 49 93 0 33 -36 76 -76 93 -41 17 -52 17 -85 -1z"/>
<path d="M4450 5447 c-58 -29 -62 -107 -8 -152 45 -38 100 -31 140 19 61 75
-42 179 -132 133z"/>
<path d="M5885 5589 c-91 -14 -89 -12 -82 -75 3 -31 8 -58 11 -61 2 -3 35 2
73 10 37 9 116 19 174 22 59 4 112 11 119 15 23 14 3 56 -37 76 -45 21 -168
27 -258 13z"/>
<path d="M7195 3776 c-58 -9 -70 -14 -73 -31 -1 -11 9 -97 23 -190 14 -94 39
-267 55 -386 29 -210 41 -269 57 -269 15 0 138 21 156 26 24 8 22 50 -13 271
-16 103 -40 273 -54 376 -13 103 -30 194 -36 202 -14 17 -18 17 -115 1z"/>
<path d="M6480 3684 c-14 -3 -44 -7 -66 -10 l-42 -5 -37 -150 c-21 -83 -65
-237 -100 -342 -72 -221 -121 -404 -111 -414 8 -8 188 15 199 26 5 5 17 44 28
87 11 44 24 82 28 86 10 11 195 36 322 44 l105 7 53 -83 c32 -50 57 -80 65
-77 7 3 44 8 82 12 87 8 114 13 114 23 0 5 -42 72 -92 150 -51 78 -167 256
-258 396 l-165 255 -50 -1 c-27 0 -61 -2 -75 -4z m64 -249 c3 -8 40 -68 83
-132 43 -65 79 -121 81 -125 2 -3 -41 -9 -95 -13 -54 -4 -117 -11 -140 -15
-35 -6 -43 -5 -43 7 0 22 94 293 101 293 4 0 9 -7 13 -15z"/>
<path d="M4758 3478 c-2 -23 -1 -60 2 -82 l6 -41 14 27 c7 15 17 25 21 22 5
-3 9 13 9 36 0 23 5 50 10 61 10 17 7 19 -24 19 -33 0 -34 -2 -38 -42z"/>
<path d="M4912 3500 c0 -14 2 -19 5 -12 2 6 2 18 0 25 -3 6 -5 1 -5 -13z"/>
<path d="M5497 3175 c-43 -7 -85 -16 -93 -19 -19 -7 -18 -59 2 -125 l15 -53
57 7 c92 11 193 33 209 47 12 10 14 25 8 73 -3 33 -11 65 -17 72 -13 16 -78
15 -181 -2z"/>
<path d="M3994 3014 c3 -8 1 -14 -4 -14 -13 0 -13 -36 0 -60 10 -18 -5 -70
-20 -70 -3 0 -4 -15 -2 -34 3 -28 0 -34 -20 -41 -12 -4 -27 -7 -31 -6 -4 1 -5
-15 -1 -34 5 -31 4 -35 -15 -35 -13 0 -21 7 -22 18 0 13 -2 14 -6 2 -10 -25
-36 -39 -73 -40 -19 0 -42 -5 -50 -11 -11 -7 -6 -8 20 -5 19 3 74 8 122 11 83
6 88 6 112 -18 21 -21 30 -24 58 -17 l33 8 -32 1 c-17 1 -34 5 -38 10 -3 6 6
8 22 5 16 -3 36 -6 45 -7 13 -1 14 -5 6 -22 -10 -19 -10 -19 7 -5 10 8 16 10
12 3 -4 -6 -3 -14 3 -18 5 -3 10 -21 10 -40 0 -36 12 -45 62 -45 41 0 158 22
158 29 0 4 -19 29 -41 56 -23 28 -67 88 -97 135 -116 177 -166 250 -171 251
-33 8 -51 5 -47 -7z m-44 -268 c0 -8 -4 -17 -9 -21 -6 -3 -9 4 -8 15 1 23 17
28 17 6z"/>
<path d="M4783 2923 c3 -49 9 -105 13 -125 7 -40 24 -52 24 -18 0 11 7 23 15
26 21 8 21 97 0 114 -8 7 -20 30 -27 51 -19 66 -30 45 -25 -48z"/>
<path d="M3908 2874 c-4 -3 -46 -9 -95 -14 l-88 -9 93 3 c55 1 97 7 104 14 7
7 8 12 2 12 -6 0 -13 -3 -16 -6z"/>
<path d="M3451 2792 c-1 -7 -25 -75 -55 -150 -30 -75 -57 -147 -61 -159 -7
-25 -4 -26 75 -23 46 2 65 9 43 17 -7 3 -13 13 -13 23 0 10 6 20 13 23 7 2 0
15 -20 34 -35 33 -43 71 -20 95 6 7 14 24 16 38 1 14 6 27 10 30 17 13 27 47
20 65 -4 11 -8 14 -8 7z"/>
<path d="M4822 2738 c-14 -14 -16 -38 -3 -38 10 0 26 39 19 46 -2 2 -10 -2
-16 -8z"/>
<path d="M4824 2663 c1 -19 7 -27 23 -29 12 -2 25 1 28 6 3 6 -3 10 -14 10
-12 0 -21 6 -21 14 0 8 -4 17 -9 20 -4 3 -8 -6 -7 -21z"/>
<path d="M9038 1223 c7 -3 16 -2 19 1 4 3 -2 6 -13 5 -11 0 -14 -3 -6 -6z"/>
</g>
</svg>
